<svg width="20" height="20" viewBox="0 0 20 20" fill="none" xmlns="http://www.w3.org/2000/svg">
<path d="M16.8282 7.25782C16.7803 7.14406 16.6999 7.04701 16.597 6.97889C16.4942 6.91076 16.3734 6.87462 16.25 6.875H3.75003C3.62664 6.87462 3.5059 6.91076 3.40302 6.97889C3.30013 7.04701 3.21972 7.14406 3.17191 7.25782C3.12688 7.37326 3.11545 7.49909 3.13896 7.62076C3.16246 7.74242 3.21993 7.85495 3.30472 7.94532L9.55472 14.1953C9.67418 14.3108 9.83386 14.3754 10 14.3754C10.1662 14.3754 10.3259 14.3108 10.4453 14.1953L16.6953 7.94532C16.7801 7.85495 16.8376 7.74242 16.8611 7.62076C16.8846 7.49909 16.8732 7.37326 16.8282 7.25782Z" fill="#5C6462"/>
</svg>
