<svg width="32" height="33" viewBox="0 0 32 33" fill="none" xmlns="http://www.w3.org/2000/svg">
<path d="M10.5 12.5C10.5 12.7652 10.3946 13.0196 10.2071 13.2071C10.0196 13.3946 9.76522 13.5 9.5 13.5H4.5C4.23478 13.5 3.98043 13.3946 3.79289 13.2071C3.60536 13.0196 3.5 12.7652 3.5 12.5C3.5 12.2348 3.60536 11.9804 3.79289 11.7929C3.98043 11.6054 4.23478 11.5 4.5 11.5H9.5C9.76522 11.5 10.0196 11.6054 10.2071 11.7929C10.3946 11.9804 10.5 12.2348 10.5 12.5ZM9.5 15.5H4.5C4.23478 15.5 3.98043 15.6054 3.79289 15.7929C3.60536 15.9804 3.5 16.2348 3.5 16.5C3.5 16.7652 3.60536 17.0196 3.79289 17.2071C3.98043 17.3946 4.23478 17.5 4.5 17.5H9.5C9.76522 17.5 10.0196 17.3946 10.2071 17.2071C10.3946 17.0196 10.5 16.7652 10.5 16.5C10.5 16.2348 10.3946 15.9804 10.2071 15.7929C10.0196 15.6054 9.76522 15.5 9.5 15.5ZM9.5 19.5H4.5C4.23478 19.5 3.98043 19.6054 3.79289 19.7929C3.60536 19.9804 3.5 20.2348 3.5 20.5C3.5 20.7652 3.60536 21.0196 3.79289 21.2071C3.98043 21.3946 4.23478 21.5 4.5 21.5H9.5C9.76522 21.5 10.0196 21.3946 10.2071 21.2071C10.3946 21.0196 10.5 20.7652 10.5 20.5C10.5 20.2348 10.3946 19.9804 10.2071 19.7929C10.0196 19.6054 9.76522 19.5 9.5 19.5ZM9.5 23.5H4.5C4.23478 23.5 3.98043 23.6054 3.79289 23.7929C3.60536 23.9804 3.5 24.2348 3.5 24.5C3.5 24.7652 3.60536 25.0196 3.79289 25.2071C3.98043 25.3946 4.23478 25.5 4.5 25.5H9.5C9.76522 25.5 10.0196 25.3946 10.2071 25.2071C10.3946 25.0196 10.5 24.7652 10.5 24.5C10.5 24.2348 10.3946 23.9804 10.2071 23.7929C10.0196 23.6054 9.76522 23.5 9.5 23.5ZM18.5 15.5H13.5C13.2348 15.5 12.9804 15.6054 12.7929 15.7929C12.6054 15.9804 12.5 16.2348 12.5 16.5C12.5 16.7652 12.6054 17.0196 12.7929 17.2071C12.9804 17.3946 13.2348 17.5 13.5 17.5H18.5C18.7652 17.5 19.0196 17.3946 19.2071 17.2071C19.3946 17.0196 19.5 16.7652 19.5 16.5C19.5 16.2348 19.3946 15.9804 19.2071 15.7929C19.0196 15.6054 18.7652 15.5 18.5 15.5ZM18.5 19.5H13.5C13.2348 19.5 12.9804 19.6054 12.7929 19.7929C12.6054 19.9804 12.5 20.2348 12.5 20.5C12.5 20.7652 12.6054 21.0196 12.7929 21.2071C12.9804 21.3946 13.2348 21.5 13.5 21.5H18.5C18.7652 21.5 19.0196 21.3946 19.2071 21.2071C19.3946 21.0196 19.5 20.7652 19.5 20.5C19.5 20.2348 19.3946 19.9804 19.2071 19.7929C19.0196 19.6054 18.7652 19.5 18.5 19.5ZM18.5 23.5H13.5C13.2348 23.5 12.9804 23.6054 12.7929 23.7929C12.6054 23.9804 12.5 24.2348 12.5 24.5C12.5 24.7652 12.6054 25.0196 12.7929 25.2071C12.9804 25.3946 13.2348 25.5 13.5 25.5H18.5C18.7652 25.5 19.0196 25.3946 19.2071 25.2071C19.3946 25.0196 19.5 24.7652 19.5 24.5C19.5 24.2348 19.3946 23.9804 19.2071 23.7929C19.0196 23.6054 18.7652 23.5 18.5 23.5ZM27.5 11.5H22.5C22.2348 11.5 21.9804 11.6054 21.7929 11.7929C21.6054 11.9804 21.5 12.2348 21.5 12.5C21.5 12.7652 21.6054 13.0196 21.7929 13.2071C21.9804 13.3946 22.2348 13.5 22.5 13.5H27.5C27.7652 13.5 28.0196 13.3946 28.2071 13.2071C28.3946 13.0196 28.5 12.7652 28.5 12.5C28.5 12.2348 28.3946 11.9804 28.2071 11.7929C28.0196 11.6054 27.7652 11.5 27.5 11.5ZM22.5 9.5H27.5C27.7652 9.5 28.0196 9.39464 28.2071 9.20711C28.3946 9.01957 28.5 8.76522 28.5 8.5C28.5 8.23478 28.3946 7.98043 28.2071 7.79289C28.0196 7.60536 27.7652 7.5 27.5 7.5H22.5C22.2348 7.5 21.9804 7.60536 21.7929 7.79289C21.6054 7.98043 21.5 8.23478 21.5 8.5C21.5 8.76522 21.6054 9.01957 21.7929 9.20711C21.9804 9.39464 22.2348 9.5 22.5 9.5ZM27.5 15.5H22.5C22.2348 15.5 21.9804 15.6054 21.7929 15.7929C21.6054 15.9804 21.5 16.2348 21.5 16.5C21.5 16.7652 21.6054 17.0196 21.7929 17.2071C21.9804 17.3946 22.2348 17.5 22.5 17.5H27.5C27.7652 17.5 28.0196 17.3946 28.2071 17.2071C28.3946 17.0196 28.5 16.7652 28.5 16.5C28.5 16.2348 28.3946 15.9804 28.2071 15.7929C28.0196 15.6054 27.7652 15.5 27.5 15.5ZM27.5 19.5H22.5C22.2348 19.5 21.9804 19.6054 21.7929 19.7929C21.6054 19.9804 21.5 20.2348 21.5 20.5C21.5 20.7652 21.6054 21.0196 21.7929 21.2071C21.9804 21.3946 22.2348 21.5 22.5 21.5H27.5C27.7652 21.5 28.0196 21.3946 28.2071 21.2071C28.3946 21.0196 28.5 20.7652 28.5 20.5C28.5 20.2348 28.3946 19.9804 28.2071 19.7929C28.0196 19.6054 27.7652 19.5 27.5 19.5ZM27.5 23.5H22.5C22.2348 23.5 21.9804 23.6054 21.7929 23.7929C21.6054 23.9804 21.5 24.2348 21.5 24.5C21.5 24.7652 21.6054 25.0196 21.7929 25.2071C21.9804 25.3946 22.2348 25.5 22.5 25.5H27.5C27.7652 25.5 28.0196 25.3946 28.2071 25.2071C28.3946 25.0196 28.5 24.7652 28.5 24.5C28.5 24.2348 28.3946 23.9804 28.2071 23.7929C28.0196 23.6054 27.7652 23.5 27.5 23.5Z" fill="#B8C8C4"/>
</svg>
