<svg width="16" height="16" viewBox="0 0 16 16" fill="none" xmlns="http://www.w3.org/2000/svg">
<path d="M8 13.5C8 13.5 1.75 10 1.75 5.75001C1.75 4.99868 2.01031 4.27057 2.48664 3.68954C2.96297 3.10851 3.62589 2.71046 4.36262 2.56312C5.09935 2.41577 5.86438 2.52823 6.52754 2.88136C7.1907 3.23449 7.71103 3.80648 8 4.50001V4.50001C8.28897 3.80648 8.8093 3.23449 9.47246 2.88136C10.1356 2.52823 10.9006 2.41577 11.6374 2.56312C12.3741 2.71046 13.037 3.10851 13.5134 3.68954C13.9897 4.27057 14.25 4.99868 14.25 5.75001C14.25 10 8 13.5 8 13.5Z" stroke="#B8C8C4" stroke-width="2" stroke-linecap="round" stroke-linejoin="round"/>
</svg>
