<svg width="24" height="24" viewBox="0 0 24 24" fill="none" xmlns="http://www.w3.org/2000/svg">
<path d="M20.25 4.5V19.5C20.25 19.8978 20.092 20.2794 19.8107 20.5607C19.5294 20.842 19.1478 21 18.75 21H15.375C14.9772 21 14.5956 20.842 14.3143 20.5607C14.033 20.2794 13.875 19.8978 13.875 19.5V4.5C13.875 4.10218 14.033 3.72064 14.3143 3.43934C14.5956 3.15804 14.9772 3 15.375 3H18.75C19.1478 3 19.5294 3.15804 19.8107 3.43934C20.092 3.72064 20.25 4.10218 20.25 4.5ZM8.625 3H5.25C4.85218 3 4.47064 3.15804 4.18934 3.43934C3.90804 3.72064 3.75 4.10218 3.75 4.5V19.5C3.75 19.8978 3.90804 20.2794 4.18934 20.5607C4.47064 20.842 4.85218 21 5.25 21H8.625C9.02282 21 9.40436 20.842 9.68566 20.5607C9.96696 20.2794 10.125 19.8978 10.125 19.5V4.5C10.125 4.10218 9.96696 3.72064 9.68566 3.43934C9.40436 3.15804 9.02282 3 8.625 3V3Z" fill="#EBFFFA"/>
</svg>
