<svg width="33" height="33" viewBox="0 0 33 33" fill="none" xmlns="http://www.w3.org/2000/svg">
<path d="M4.16507 8.46068C4.16507 8.19547 4.27042 7.94111 4.45796 7.75358C4.6455 7.56604 4.89985 7.46068 5.16507 7.46068H27.1651C27.4303 7.46068 27.6846 7.56604 27.8722 7.75358C28.0597 7.94111 28.1651 8.19547 28.1651 8.46068C28.1651 8.7259 28.0597 8.98025 27.8722 9.16779C27.6846 9.35533 27.4303 9.46068 27.1651 9.46068H5.16507C4.89985 9.46068 4.6455 9.35533 4.45796 9.16779C4.27042 8.98025 4.16507 8.7259 4.16507 8.46068V8.46068ZM5.16507 17.4607H20.1651C20.4303 17.4607 20.6846 17.3553 20.8722 17.1678C21.0597 16.9803 21.1651 16.7259 21.1651 16.4607C21.1651 16.1955 21.0597 15.9411 20.8722 15.7536C20.6846 15.566 20.4303 15.4607 20.1651 15.4607H5.16507C4.89985 15.4607 4.6455 15.566 4.45796 15.7536C4.27042 15.9411 4.16507 16.1955 4.16507 16.4607C4.16507 16.7259 4.27042 16.9803 4.45796 17.1678C4.6455 17.3553 4.89985 17.4607 5.16507 17.4607ZM14.1651 23.4607H5.16507C4.89985 23.4607 4.6455 23.566 4.45796 23.7536C4.27042 23.9411 4.16507 24.1955 4.16507 24.4607C4.16507 24.7259 4.27042 24.9803 4.45796 25.1678C4.6455 25.3553 4.89985 25.4607 5.16507 25.4607H14.1651C14.4303 25.4607 14.6846 25.3553 14.8722 25.1678C15.0597 24.9803 15.1651 24.7259 15.1651 24.4607C15.1651 24.1955 15.0597 23.9411 14.8722 23.7536C14.6846 23.566 14.4303 23.4607 14.1651 23.4607ZM30.4526 14.9982L25.4526 13.4982C25.302 13.4558 25.1438 13.4484 24.99 13.4765C24.8361 13.5047 24.6908 13.5677 24.5651 13.6607C24.4416 13.7545 24.3413 13.8754 24.2719 14.0141C24.2026 14.1528 24.166 14.3056 24.1651 14.4607V20.9982C23.4024 20.5579 22.5158 20.3815 21.6428 20.4965C20.7697 20.6115 19.959 21.0114 19.3364 21.6341C18.7137 22.2569 18.314 23.0677 18.1992 23.9408C18.0844 24.8139 18.2609 25.7004 18.7014 26.463C19.1418 27.2255 19.8216 27.8214 20.6353 28.1582C21.4489 28.495 22.351 28.5539 23.2015 28.3257C24.052 28.0975 24.8035 27.595 25.3393 26.8962C25.8752 26.1974 26.1654 25.3413 26.1651 24.4607V15.8107L29.8776 16.9232C30.1328 16.9994 30.4079 16.9712 30.6424 16.8446C30.8768 16.718 31.0513 16.5035 31.1276 16.2482C31.2038 15.9929 31.1755 15.7178 31.049 15.4834C30.9224 15.249 30.7078 15.0744 30.4526 14.9982V14.9982Z" fill="#EBFFFA"/>
</svg>
