<svg width="33" height="33" viewBox="0 0 33 33" fill="none" xmlns="http://www.w3.org/2000/svg">
<path d="M3.58282 16.6569C3.58613 14.271 4.5354 11.9837 6.22251 10.2966C7.90962 8.60951 10.1969 7.66024 12.5828 7.65693H24.5828V5.65693C24.5822 5.45951 24.64 5.26632 24.749 5.10171C24.858 4.9371 25.0133 4.80844 25.1953 4.73193C25.38 4.65989 25.5814 4.64161 25.776 4.67922C25.9707 4.71682 26.1507 4.80877 26.2953 4.94443L29.2953 7.94443C29.4831 8.13403 29.5884 8.39009 29.5884 8.65693C29.5884 8.92378 29.4831 9.17984 29.2953 9.36943L26.2953 12.3694C26.1034 12.5529 25.8484 12.6558 25.5828 12.6569C25.4501 12.6564 25.3187 12.6309 25.1953 12.5819C25.0133 12.5054 24.858 12.3768 24.749 12.2122C24.64 12.0475 24.5822 11.8544 24.5828 11.6569V9.65693H12.5828C10.7263 9.65693 8.94583 10.3944 7.63307 11.7072C6.32032 13.0199 5.58282 14.8004 5.58282 16.6569C5.58282 16.9222 5.47746 17.1765 5.28993 17.364C5.10239 17.5516 4.84804 17.6569 4.58282 17.6569C4.3176 17.6569 4.06325 17.5516 3.87571 17.364C3.68818 17.1765 3.58282 16.9222 3.58282 16.6569ZM28.5828 15.6569C28.3176 15.6569 28.0632 15.7623 27.8757 15.9498C27.6882 16.1374 27.5828 16.3917 27.5828 16.6569C27.5828 18.5135 26.8453 20.2939 25.5326 21.6067C24.2198 22.9194 22.4393 23.6569 20.5828 23.6569H8.58282V21.6569C8.58344 21.4595 8.5256 21.2663 8.4166 21.1017C8.30761 20.9371 8.15232 20.8084 7.97032 20.7319C7.78561 20.6599 7.58427 20.6416 7.38961 20.6792C7.19495 20.7168 7.01491 20.8088 6.87032 20.9444L3.87032 23.9444C3.68254 24.134 3.57719 24.3901 3.57719 24.6569C3.57719 24.9238 3.68254 25.1798 3.87032 25.3694L6.87032 28.3694C7.06228 28.5529 7.31728 28.6558 7.58282 28.6569C7.71554 28.6564 7.84697 28.6309 7.97032 28.5819C8.15232 28.5054 8.30761 28.3768 8.4166 28.2122C8.5256 28.0476 8.58344 27.8544 8.58282 27.6569V25.6569H20.5828C22.9688 25.6536 25.256 24.7044 26.9431 23.0172C28.6302 21.3301 29.5795 19.0429 29.5828 16.6569C29.5828 16.3917 29.4775 16.1374 29.2899 15.9498C29.1024 15.7623 28.848 15.6569 28.5828 15.6569ZM17.0828 20.6569C17.348 20.6569 17.6024 20.5516 17.7899 20.364C17.9775 20.1765 18.0828 19.9222 18.0828 19.6569V13.6569C18.0838 13.4863 18.0406 13.3183 17.9574 13.1693C17.8741 13.0204 17.7537 12.8955 17.6078 12.8069C17.4631 12.716 17.2975 12.6636 17.1268 12.6549C16.9561 12.6461 16.7861 12.6813 16.6328 12.7569L14.6328 13.7569C14.3976 13.8799 14.2193 14.0893 14.1354 14.3411C14.0514 14.5929 14.0685 14.8674 14.1828 15.1069C14.3056 15.3423 14.5159 15.5199 14.7683 15.6018C15.0208 15.6836 15.2954 15.663 15.5328 15.5444L16.0828 15.2694V19.6569C16.0828 19.9222 16.1882 20.1765 16.3757 20.364C16.5632 20.5516 16.8176 20.6569 17.0828 20.6569Z" fill="#B8C8C4"/>
</svg>
