<svg width="32" height="32" viewBox="0 0 32 32" fill="none" xmlns="http://www.w3.org/2000/svg">
<path d="M2.99999 16C3.0033 13.6141 3.95257 11.3268 5.63969 9.6397C7.3268 7.95259 9.61406 7.00332 12 7.00001H24V5.00001C23.9994 4.80259 24.0572 4.6094 24.1662 4.44479C24.2752 4.28018 24.4305 4.15151 24.6125 4.07501C24.7972 4.00297 24.9985 3.98469 25.1932 4.0223C25.3879 4.0599 25.5679 4.15185 25.7125 4.28751L28.7125 7.28751C28.9003 7.47711 29.0056 7.73317 29.0056 8.00001C29.0056 8.26686 28.9003 8.52292 28.7125 8.71251L25.7125 11.7125C25.5205 11.896 25.2655 11.9989 25 12C24.8673 11.9994 24.7358 11.974 24.6125 11.925C24.4305 11.8485 24.2752 11.7198 24.1662 11.5552C24.0572 11.3906 23.9994 11.1974 24 11V9.00001H12C10.1435 9.00001 8.363 9.73751 7.05025 11.0503C5.73749 12.363 4.99999 14.1435 4.99999 16C4.99999 16.2652 4.89464 16.5196 4.7071 16.7071C4.51956 16.8947 4.26521 17 3.99999 17C3.73478 17 3.48042 16.8947 3.29289 16.7071C3.10535 16.5196 2.99999 16.2652 2.99999 16ZM28 15C27.7348 15 27.4804 15.1054 27.2929 15.2929C27.1054 15.4804 27 15.7348 27 16C27 17.8565 26.2625 19.637 24.9497 20.9498C23.637 22.2625 21.8565 23 20 23H7.99999V21C8.00061 20.8026 7.94278 20.6094 7.83378 20.4448C7.72478 20.2802 7.5695 20.1515 7.38749 20.075C7.20278 20.003 7.00145 19.9847 6.80679 20.0223C6.61212 20.0599 6.43208 20.1519 6.28749 20.2875L3.28749 23.2875C3.09971 23.4771 2.99437 23.7332 2.99437 24C2.99437 24.2669 3.09971 24.5229 3.28749 24.7125L6.28749 27.7125C6.47945 27.896 6.73445 27.9989 6.99999 28C7.13271 27.9994 7.26415 27.974 7.38749 27.925C7.5695 27.8485 7.72478 27.7198 7.83378 27.5552C7.94278 27.3906 8.00061 27.1974 7.99999 27V25H20C22.3859 24.9967 24.6732 24.0474 26.3603 22.3603C28.0474 20.6732 28.9967 18.3859 29 16C29 15.7348 28.8946 15.4804 28.7071 15.2929C28.5196 15.1054 28.2652 15 28 15Z" fill="#B8C8C4"/>
<path d="M6 5L26 27" stroke="#B8C8C4" stroke-width="2" stroke-linecap="round" stroke-linejoin="round"/>
</svg>
