<svg width="33" height="33" viewBox="0 0 33 33" fill="none" xmlns="http://www.w3.org/2000/svg">
<path d="M3.67217 16.4919C3.67548 14.106 4.62476 11.8187 6.31187 10.1316C7.99898 8.44451 10.2862 7.49523 12.6722 7.49193H24.6722V5.49193C24.6716 5.2945 24.7294 5.10131 24.8384 4.9367C24.9474 4.77209 25.1027 4.64343 25.2847 4.56693C25.4694 4.49488 25.6707 4.4766 25.8654 4.51421C26.06 4.55181 26.2401 4.64377 26.3847 4.77943L29.3847 7.77943C29.5725 7.96902 29.6778 8.22508 29.6778 8.49193C29.6778 8.75877 29.5725 9.01483 29.3847 9.20443L26.3847 12.2044C26.1927 12.3879 25.9377 12.4908 25.6722 12.4919C25.5395 12.4913 25.408 12.4659 25.2847 12.4169C25.1027 12.3404 24.9474 12.2118 24.8384 12.0472C24.7294 11.8825 24.6716 11.6894 24.6722 11.4919V9.49193H12.6722C10.8157 9.49193 9.03518 10.2294 7.72243 11.5422C6.40967 12.8549 5.67217 14.6354 5.67217 16.4919C5.67217 16.7571 5.56682 17.0115 5.37928 17.199C5.19175 17.3866 4.93739 17.4919 4.67217 17.4919C4.40696 17.4919 4.1526 17.3866 3.96507 17.199C3.77753 17.0115 3.67217 16.7571 3.67217 16.4919ZM28.6722 15.4919C28.407 15.4919 28.1526 15.5973 27.9651 15.7848C27.7775 15.9724 27.6722 16.2267 27.6722 16.4919C27.6722 18.3484 26.9347 20.1289 25.6219 21.4417C24.3092 22.7544 22.5287 23.4919 20.6722 23.4919H8.67217V21.4919C8.67279 21.2945 8.61496 21.1013 8.50596 20.9367C8.39696 20.7721 8.24168 20.6434 8.05967 20.5669C7.87496 20.4949 7.67363 20.4766 7.47897 20.5142C7.2843 20.5518 7.10426 20.6438 6.95967 20.7794L3.95967 23.7794C3.77189 23.969 3.66655 24.2251 3.66655 24.4919C3.66655 24.7588 3.77189 25.0148 3.95967 25.2044L6.95967 28.2044C7.15163 28.3879 7.40663 28.4908 7.67217 28.4919C7.80489 28.4913 7.93633 28.4659 8.05967 28.4169C8.24168 28.3404 8.39696 28.2118 8.50596 28.0472C8.61496 27.8825 8.67279 27.6894 8.67217 27.4919V25.4919H20.6722C23.0581 25.4886 25.3454 24.5393 27.0325 22.8522C28.7196 21.1651 29.6689 18.8779 29.6722 16.4919C29.6722 16.2267 29.5668 15.9724 29.3793 15.7848C29.1917 15.5973 28.9374 15.4919 28.6722 15.4919Z" fill="#B8C8C4"/>
</svg>
