<svg width="25" height="25" viewBox="0 0 25 25" fill="none" xmlns="http://www.w3.org/2000/svg">
<path d="M1.51592 11.6657L9.87842 6.29385C10.1054 6.14681 10.3678 6.06385 10.638 6.05375C10.9083 6.04366 11.1762 6.10679 11.4135 6.23648C11.6507 6.36616 11.8485 6.55758 11.986 6.79047C12.1234 7.02336 12.1953 7.28907 12.194 7.55947V11.5532L20.3784 6.29385C20.6054 6.14681 20.8678 6.06385 21.138 6.05375C21.4083 6.04366 21.6762 6.10679 21.9135 6.23648C22.1507 6.36616 22.3485 6.55758 22.486 6.79047C22.6234 7.02336 22.6953 7.28907 22.694 7.55947V18.3032C22.6943 18.573 22.6223 18.8379 22.4854 19.0704C22.3486 19.3028 22.1519 19.4944 21.9159 19.6251C21.677 19.7507 21.4094 19.8115 21.1397 19.8017C20.87 19.7918 20.6075 19.7115 20.3784 19.5688L12.194 14.3095V18.3032C12.1943 18.573 12.1223 18.8379 11.9854 19.0704C11.8486 19.3028 11.6519 19.4944 11.4159 19.6251C11.177 19.7507 10.9094 19.8115 10.6397 19.8017C10.37 19.7918 10.1075 19.7115 9.87842 19.5688L1.51592 14.197C1.30504 14.0599 1.13175 13.8724 1.01179 13.6514C0.891819 13.4303 0.828981 13.1828 0.828981 12.9313C0.828981 12.6799 0.891819 12.4324 1.01179 12.2113C1.13175 11.9903 1.30504 11.8028 1.51592 11.6657V11.6657Z" fill="#B8C8C4"/>
</svg>
