<svg width="33" height="33" viewBox="0 0 33 33" fill="none" xmlns="http://www.w3.org/2000/svg">
<path d="M30.2953 23.2462C30.4831 23.4358 30.5884 23.6919 30.5884 23.9587C30.5884 24.2256 30.4831 24.4816 30.2953 24.6712L27.2953 27.6712C27.1034 27.8547 26.8484 27.9576 26.5828 27.9587C26.4501 27.9581 26.3187 27.9327 26.1953 27.8837C26.0133 27.8072 25.858 27.6786 25.749 27.5139C25.64 27.3493 25.5822 27.1561 25.5828 26.9587V24.9587C24.1689 24.9385 22.7796 24.5863 21.5268 23.9306C20.274 23.2749 19.1928 22.334 18.3703 21.1837L13.1578 13.8962C12.511 12.9903 11.6578 12.2514 10.6688 11.7406C9.67982 11.2298 8.58343 10.9618 7.47032 10.9587H4.58282C4.31761 10.9587 4.06325 10.8534 3.87572 10.6658C3.68818 10.4783 3.58282 10.2239 3.58282 9.95872C3.58282 9.69351 3.68818 9.43915 3.87572 9.25162C4.06325 9.06408 4.31761 8.95872 4.58282 8.95872H7.47032C8.90329 8.96124 10.3151 9.30494 11.5888 9.96139C12.8626 10.6178 13.9617 11.5682 14.7953 12.7337L20.0078 20.0212C20.6421 20.9133 21.477 21.6439 22.4454 22.1541C23.4137 22.6643 24.4884 22.94 25.5828 22.9587V20.9587C25.5822 20.7613 25.64 20.5681 25.749 20.4035C25.858 20.2389 26.0133 20.1102 26.1953 20.0337C26.38 19.9617 26.5814 19.9434 26.776 19.981C26.9707 20.0186 27.1507 20.1106 27.2953 20.2462L30.2953 23.2462ZM18.4578 14.3337C18.5652 14.4106 18.6866 14.4654 18.8153 14.4951C18.9439 14.5248 19.0771 14.5287 19.2073 14.5066C19.3375 14.4845 19.4619 14.4369 19.5736 14.3665C19.6852 14.296 19.7818 14.2042 19.8578 14.0962L20.0078 13.8962C20.6421 13.0042 21.477 12.2736 22.4454 11.7633C23.4137 11.2531 24.4884 10.9775 25.5828 10.9587V12.9587C25.5822 13.1561 25.64 13.3493 25.749 13.5139C25.858 13.6786 26.0133 13.8072 26.1953 13.8837C26.3187 13.9327 26.4501 13.9581 26.5828 13.9587C26.8484 13.9576 27.1034 13.8547 27.2953 13.6712L30.2953 10.6712C30.4831 10.4816 30.5884 10.2256 30.5884 9.95872C30.5884 9.69188 30.4831 9.43582 30.2953 9.24622L27.2953 6.24622C27.1507 6.11056 26.9707 6.01861 26.776 5.98101C26.5814 5.9434 26.38 5.96168 26.1953 6.03372C26.0133 6.11022 25.858 6.23889 25.749 6.4035C25.64 6.56811 25.5822 6.7613 25.5828 6.95872V8.95872C24.1689 8.97894 22.7796 9.3311 21.5268 9.98681C20.274 10.6425 19.1928 11.5835 18.3703 12.7337L18.2328 12.9337C18.1553 13.0403 18.0997 13.1611 18.069 13.2893C18.0384 13.4174 18.0334 13.5504 18.0543 13.6805C18.0752 13.8106 18.1216 13.9353 18.1909 14.0474C18.2601 14.1595 18.3508 14.2568 18.4578 14.3337ZM14.7078 19.5837C14.6005 19.5069 14.479 19.452 14.3504 19.4223C14.2217 19.3927 14.0885 19.3888 13.9584 19.4108C13.8282 19.4329 13.7037 19.4806 13.5921 19.551C13.4804 19.6214 13.3838 19.7133 13.3078 19.8212L13.1578 20.0212C12.511 20.9271 11.6578 21.666 10.6688 22.1768C9.67982 22.6876 8.58343 22.9556 7.47032 22.9587H4.58282C4.31761 22.9587 4.06325 23.0641 3.87572 23.2516C3.68818 23.4392 3.58282 23.6935 3.58282 23.9587C3.58282 24.2239 3.68818 24.4783 3.87572 24.6658C4.06325 24.8534 4.31761 24.9587 4.58282 24.9587H7.47032C8.90329 24.9562 10.3151 24.6125 11.5888 23.9561C12.8626 23.2996 13.9617 22.3493 14.7953 21.1837L14.9328 20.9837C15.0103 20.8771 15.066 20.7563 15.0966 20.6282C15.1273 20.5 15.1323 20.367 15.1114 20.2369C15.0905 20.1068 15.044 19.9822 14.9748 19.8701C14.9055 19.758 14.8148 19.6606 14.7078 19.5837Z" fill="#B8C8C4"/>
</svg>
