<svg width="20" height="20" viewBox="0 0 20 20" fill="none" xmlns="http://www.w3.org/2000/svg">
<path d="M16.6953 12.0547L10.4453 5.80468C10.3268 5.68732 10.1668 5.62148 10 5.62148C9.83322 5.62148 9.67318 5.68732 9.55469 5.80468L3.30469 12.0547C3.2199 12.145 3.16243 12.2576 3.13893 12.3792C3.11542 12.5009 3.12685 12.6267 3.17188 12.7422C3.21969 12.8559 3.3001 12.953 3.40298 13.0211C3.50587 13.0892 3.62661 13.1254 3.75 13.125H16.25C16.3734 13.1254 16.4941 13.0892 16.597 13.0211C16.6999 12.953 16.7803 12.8559 16.8281 12.7422C16.8732 12.6267 16.8846 12.5009 16.8611 12.3792C16.8376 12.2576 16.7801 12.145 16.6953 12.0547Z" fill="#5C6462"/>
</svg>
