<svg width="33" height="33" viewBox="0 0 33 33" fill="none" xmlns="http://www.w3.org/2000/svg">
<path d="M16.5854 3.80489C14.0142 3.80489 11.5008 4.56732 9.36297 5.99578C7.22513 7.42424 5.55888 9.45456 4.57494 11.83C3.59101 14.2054 3.33356 16.8193 3.83517 19.3411C4.33678 21.8628 5.57491 24.1792 7.39299 25.9973C9.21107 27.8154 11.5275 29.0535 14.0492 29.5551C16.571 30.0567 19.1848 29.7993 21.5603 28.8153C23.9357 27.8314 25.966 26.1651 27.3945 24.0273C28.8229 21.8895 29.5854 19.376 29.5854 16.8049C29.5788 13.3591 28.207 10.0563 25.7705 7.6198C23.3339 5.18325 20.0312 3.81149 16.5854 3.80489V3.80489ZM21.5854 17.8049H17.5854V21.8049C17.5854 22.0701 17.48 22.3245 17.2925 22.512C17.1049 22.6995 16.8506 22.8049 16.5854 22.8049C16.3202 22.8049 16.0658 22.6995 15.8783 22.512C15.6907 22.3245 15.5854 22.0701 15.5854 21.8049V17.8049H11.5854C11.3202 17.8049 11.0658 17.6995 10.8783 17.512C10.6907 17.3245 10.5854 17.0701 10.5854 16.8049C10.5854 16.5397 10.6907 16.2853 10.8783 16.0978C11.0658 15.9102 11.3202 15.8049 11.5854 15.8049H15.5854V11.8049C15.5854 11.5397 15.6907 11.2853 15.8783 11.0978C16.0658 10.9102 16.3202 10.8049 16.5854 10.8049C16.8506 10.8049 17.1049 10.9102 17.2925 11.0978C17.48 11.2853 17.5854 11.5397 17.5854 11.8049V15.8049H21.5854C21.8506 15.8049 22.1049 15.9102 22.2925 16.0978C22.48 16.2853 22.5854 16.5397 22.5854 16.8049C22.5854 17.0701 22.48 17.3245 22.2925 17.512C22.1049 17.6995 21.8506 17.8049 21.5854 17.8049Z" fill="black"/>
</svg>
