<svg width="33" height="33" viewBox="0 0 33 33" fill="none" xmlns="http://www.w3.org/2000/svg">
<path d="M22.0306 4.12275C20.8663 4.12275 19.7179 4.39384 18.6765 4.91455C17.6351 5.43525 16.7292 6.19128 16.0306 7.12275C15.0861 5.86345 13.7694 4.93325 12.2669 4.4639C10.7644 3.99455 9.15224 4.00984 7.6589 4.50762C6.16556 5.0054 4.8667 5.96043 3.94629 7.23742C3.02589 8.51441 2.53061 10.0486 2.53061 11.6227C2.53061 20.6102 15.0181 27.6977 15.5431 27.9977C15.6919 28.0814 15.86 28.1245 16.0306 28.1227C16.2014 28.1257 16.3698 28.0825 16.5181 27.9977C18.8177 26.6534 20.9747 25.0786 22.9556 23.2977C27.3181 19.3727 29.5306 15.4477 29.5306 11.6227C29.5306 9.63363 28.7404 7.72597 27.3339 6.31945C25.9274 4.91293 24.0197 4.12275 22.0306 4.12275V4.12275Z" fill="#EBFFFA"/>
</svg>
