<svg width="25" height="25" viewBox="0 0 25 25" fill="none" xmlns="http://www.w3.org/2000/svg">
<path d="M24.4153 12.4385C24.4164 12.6899 24.3543 12.9376 24.2347 13.1587C24.1152 13.3799 23.9419 13.5674 23.7309 13.7041L15.3684 19.076C15.1415 19.223 14.879 19.306 14.6088 19.3161C14.3386 19.3262 14.0706 19.263 13.8334 19.1334C13.5961 19.0037 13.3983 18.8123 13.2609 18.5794C13.1235 18.3465 13.0516 18.0808 13.0528 17.8104V13.8166L4.8684 19.076C4.64146 19.223 4.379 19.306 4.10878 19.3161C3.83856 19.3262 3.57064 19.263 3.33336 19.1334C3.09608 19.0037 2.89827 18.8123 2.76086 18.5794C2.62345 18.3465 2.55156 18.0808 2.55277 17.8104V7.06661C2.55156 6.79621 2.62345 6.53051 2.76086 6.29761C2.89827 6.06472 3.09608 5.87331 3.33336 5.74362C3.57064 5.61393 3.83856 5.5508 4.10878 5.5609C4.379 5.571 4.64146 5.65395 4.8684 5.80099L13.0528 11.0604V7.06661C13.0516 6.79621 13.1235 6.53051 13.2609 6.29761C13.3983 6.06472 13.5961 5.87331 13.8334 5.74362C14.0706 5.61393 14.3386 5.5508 14.6088 5.5609C14.879 5.571 15.1415 5.65395 15.3684 5.80099L23.7309 11.1729C23.9419 11.3096 24.1152 11.4971 24.2347 11.7183C24.3543 11.9394 24.4164 12.1871 24.4153 12.4385Z" fill="#B8C8C4"/>
</svg>
