<svg width="32" height="33" viewBox="0 0 32 33" fill="none" xmlns="http://www.w3.org/2000/svg">
<path d="M17 10.5V15.925L21.7 18.6375C21.8889 18.7483 22.0362 18.9181 22.1193 19.1208C22.2023 19.3234 22.2166 19.5478 22.1598 19.7593C22.103 19.9708 21.9783 20.1579 21.8049 20.2917C21.6315 20.4255 21.419 20.4987 21.2 20.5C21.0234 20.505 20.8493 20.4571 20.7 20.3625L15.5 17.3625H15.475L15.425 17.3375L15.3875 17.3L15.35 17.275L15.3125 17.2375L15.2875 17.2125C15.2625 17.2 15.25 17.175 15.2375 17.1625L15.2125 17.1375L15.1875 17.0875L15.1625 17.05L15.1375 17.0125C15.1297 17.0067 15.1234 16.9991 15.1191 16.9904C15.1148 16.9818 15.1125 16.9722 15.1125 16.9625L15.0875 16.925C15.0875 16.9125 15.075 16.9 15.075 16.875C15.0705 16.8699 15.067 16.864 15.0649 16.8575C15.0627 16.8511 15.0619 16.8443 15.0625 16.8375L15.0375 16.7875C15.0381 16.7807 15.0373 16.7739 15.0351 16.7675C15.033 16.761 15.0295 16.7551 15.025 16.75C15.025 16.725 15.025 16.7125 15.0125 16.7V16.65C15.0125 16.625 15 16.6125 15 16.6V10.5C15 10.2348 15.1054 9.98043 15.2929 9.79289C15.4804 9.60536 15.7348 9.5 16 9.5C16.2652 9.5 16.5196 9.60536 16.7071 9.79289C16.8946 9.98043 17 10.2348 17 10.5V10.5ZM24.4875 8.0125C22.2336 5.76682 19.1817 4.50589 16 4.50589C12.8183 4.50589 9.76636 5.76682 7.5125 8.0125L6.475 9.05L4.6875 7.2625C4.54876 7.12172 4.37141 7.02521 4.17785 6.98516C3.9843 6.94512 3.78321 6.96333 3.6 7.0375C3.41757 7.11478 3.26145 7.24328 3.15052 7.40745C3.0396 7.57161 2.97863 7.76441 2.975 7.9625V12.9625C2.975 13.2277 3.08036 13.4821 3.26789 13.6696C3.45543 13.8571 3.70978 13.9625 3.975 13.9625H8.975C9.17179 13.9622 9.36411 13.9038 9.52787 13.7947C9.69164 13.6856 9.81956 13.5305 9.89563 13.349C9.9717 13.1675 9.99253 12.9676 9.9555 12.7744C9.91848 12.5811 9.82525 12.403 9.6875 12.2625L7.8875 10.4625L8.925 9.425C10.324 8.02759 12.1058 7.07628 14.0453 6.69133C15.9848 6.30638 17.9949 6.50507 19.8215 7.26227C21.6481 8.01947 23.2093 9.3012 24.3076 10.9455C25.4059 12.5897 25.9921 14.5227 25.9921 16.5C25.9921 18.4773 25.4059 20.4103 24.3076 22.0545C23.2093 23.6988 21.6481 24.9805 19.8215 25.7377C17.9949 26.4949 15.9848 26.6936 14.0453 26.3087C12.1058 25.9237 10.324 24.9724 8.925 23.575C8.83303 23.4809 8.72317 23.4061 8.60189 23.355C8.48061 23.304 8.35034 23.2777 8.21875 23.2777C8.08716 23.2777 7.95689 23.304 7.83561 23.355C7.71433 23.4061 7.60447 23.4809 7.5125 23.575C7.32549 23.7625 7.22046 24.0165 7.22046 24.2812C7.22046 24.546 7.32549 24.8 7.5125 24.9875C9.76352 27.2385 12.8166 28.5031 16 28.5031C19.1834 28.5031 22.2365 27.2385 24.4875 24.9875C26.7385 22.7365 28.0031 19.6834 28.0031 16.5C28.0031 13.3166 26.7385 10.2635 24.4875 8.0125V8.0125Z" fill="#EBFFFA"/>
</svg>
