<svg width="32" height="33" viewBox="0 0 32 33" fill="none" xmlns="http://www.w3.org/2000/svg">
<path d="M27.35 13.4625L17.35 4.375C16.9813 4.0377 16.4997 3.85064 16 3.85064C15.5003 3.85064 15.0187 4.0377 14.65 4.375L4.65 13.4625C4.44526 13.6498 4.28173 13.8777 4.16983 14.1316C4.05792 14.3856 4.00009 14.66 4 14.9375V26.45C3.99187 26.9542 4.16988 27.4438 4.5 27.825C4.68736 28.0381 4.91816 28.2085 5.17689 28.325C5.43562 28.4414 5.71628 28.5011 6 28.5H12C12.2652 28.5 12.5196 28.3946 12.7071 28.2071C12.8946 28.0196 13 27.7652 13 27.5V21.5C13 21.2348 13.1054 20.9804 13.2929 20.7929C13.4804 20.6054 13.7348 20.5 14 20.5H18C18.2652 20.5 18.5196 20.6054 18.7071 20.7929C18.8946 20.9804 19 21.2348 19 21.5V27.5C19 27.7652 19.1054 28.0196 19.2929 28.2071C19.4804 28.3946 19.7348 28.5 20 28.5H26C26.3317 28.5029 26.6587 28.4212 26.95 28.2625C27.267 28.0899 27.5317 27.8352 27.7164 27.5251C27.9012 27.215 27.9991 26.8609 28 26.5V14.9375C27.9999 14.66 27.9421 14.3856 27.8302 14.1316C27.7183 13.8777 27.5547 13.6498 27.35 13.4625V13.4625Z" fill="#EBFFFA"/>
</svg>
