<svg width="25" height="25" viewBox="0 0 25 25" fill="none" xmlns="http://www.w3.org/2000/svg">
<path d="M21.1476 4.88928V19.8893C21.1476 20.2871 20.9896 20.6686 20.7083 20.9499C20.427 21.2312 20.0454 21.3893 19.6476 21.3893H16.2726C15.8748 21.3893 15.4933 21.2312 15.212 20.9499C14.9306 20.6686 14.7726 20.2871 14.7726 19.8893V4.88928C14.7726 4.49146 14.9306 4.10993 15.212 3.82862C15.4933 3.54732 15.8748 3.38928 16.2726 3.38928H19.6476C20.0454 3.38928 20.427 3.54732 20.7083 3.82862C20.9896 4.10993 21.1476 4.49146 21.1476 4.88928ZM9.52261 3.38928H6.14761C5.74979 3.38928 5.36826 3.54732 5.08695 3.82862C4.80565 4.10993 4.64761 4.49146 4.64761 4.88928V19.8893C4.64761 20.2871 4.80565 20.6686 5.08695 20.9499C5.36826 21.2312 5.74979 21.3893 6.14761 21.3893H9.52261C9.92044 21.3893 10.302 21.2312 10.5833 20.9499C10.8646 20.6686 11.0226 20.2871 11.0226 19.8893V4.88928C11.0226 4.49146 10.8646 4.10993 10.5833 3.82862C10.302 3.54732 9.92044 3.38928 9.52261 3.38928V3.38928Z" fill="#B8C8C4"/>
</svg>
