<svg width="24" height="25" viewBox="0 0 24 25" fill="none" xmlns="http://www.w3.org/2000/svg">
<path d="M21.7781 11.2156L8.27813 2.975C8.05325 2.8325 7.79355 2.75451 7.52738 2.74955C7.2612 2.74459 6.99878 2.81285 6.76875 2.94688C6.53532 3.07494 6.34073 3.26356 6.20545 3.49288C6.07017 3.7222 5.99919 3.98375 6 4.25V20.75C5.99919 21.0163 6.07017 21.2778 6.20545 21.5071C6.34073 21.7364 6.53532 21.9251 6.76875 22.0531C6.99878 22.1872 7.2612 22.2554 7.52738 22.2504C7.79355 22.2455 8.05325 22.1675 8.27813 22.025L21.7781 13.7844C21.9994 13.6509 22.1824 13.4625 22.3095 13.2375C22.4365 13.0124 22.5033 12.7584 22.5033 12.5C22.5033 12.2416 22.4365 11.9876 22.3095 11.7625C22.1824 11.5375 21.9994 11.3491 21.7781 11.2156V11.2156Z" fill="#EBFFFA"/>
</svg>
