<svg width="32" height="33" viewBox="0 0 32 33" fill="none" xmlns="http://www.w3.org/2000/svg">
<path d="M3 16.5C3.00331 14.1141 3.95258 11.8268 5.63969 10.1397C7.3268 8.45258 9.61407 7.50331 12 7.5H24V5.5C23.9994 5.30257 24.0572 5.10938 24.1662 4.94477C24.2752 4.78016 24.4305 4.6515 24.6125 4.575C24.7972 4.50295 24.9985 4.48468 25.1932 4.52228C25.3879 4.55989 25.5679 4.65184 25.7125 4.7875L28.7125 7.7875C28.9003 7.97709 29.0056 8.23315 29.0056 8.5C29.0056 8.76685 28.9003 9.02291 28.7125 9.2125L25.7125 12.2125C25.5205 12.396 25.2655 12.4989 25 12.5C24.8673 12.4994 24.7358 12.474 24.6125 12.425C24.4305 12.3485 24.2752 12.2198 24.1662 12.0552C24.0572 11.8906 23.9994 11.6974 24 11.5V9.5H12C10.1435 9.5 8.36301 10.2375 7.05025 11.5503C5.7375 12.863 5 14.6435 5 16.5C5 16.7652 4.89464 17.0196 4.70711 17.2071C4.51957 17.3946 4.26522 17.5 4 17.5C3.73478 17.5 3.48043 17.3946 3.29289 17.2071C3.10536 17.0196 3 16.7652 3 16.5ZM28 15.5C27.7348 15.5 27.4804 15.6054 27.2929 15.7929C27.1054 15.9804 27 16.2348 27 16.5C27 18.3565 26.2625 20.137 24.9497 21.4497C23.637 22.7625 21.8565 23.5 20 23.5H8V21.5C8.00062 21.3026 7.94278 21.1094 7.83378 20.9448C7.72479 20.7802 7.5695 20.6515 7.3875 20.575C7.20279 20.503 7.00146 20.4847 6.80679 20.5223C6.61213 20.5599 6.43209 20.6518 6.2875 20.7875L3.2875 23.7875C3.09972 23.9771 2.99437 24.2332 2.99437 24.5C2.99437 24.7668 3.09972 25.0229 3.2875 25.2125L6.2875 28.2125C6.47946 28.396 6.73446 28.4989 7 28.5C7.13272 28.4994 7.26415 28.474 7.3875 28.425C7.5695 28.3485 7.72479 28.2198 7.83378 28.0552C7.94278 27.8906 8.00062 27.6974 8 27.5V25.5H20C22.3859 25.4967 24.6732 24.5474 26.3603 22.8603C28.0474 21.1732 28.9967 18.8859 29 16.5C29 16.2348 28.8946 15.9804 28.7071 15.7929C28.5196 15.6054 28.2652 15.5 28 15.5Z" fill="#B8C8C4"/>
</svg>
