<svg width="32" height="33" viewBox="0 0 32 33" fill="none" xmlns="http://www.w3.org/2000/svg">
<path d="M29.6875 13.5375C29.6565 13.3977 29.5957 13.2662 29.5095 13.1519C29.4232 13.0376 29.3134 12.9432 29.1875 12.875L26.2125 11.225C26.0542 10.9 25.8792 10.5875 25.6875 10.2875L25.7375 6.8875C25.7386 6.74489 25.7104 6.60358 25.6545 6.47238C25.5985 6.34119 25.5162 6.22293 25.4125 6.125C23.9312 4.78196 22.1794 3.7718 20.275 3.1625C20.1382 3.11986 19.994 3.10672 19.8518 3.12396C19.7096 3.1412 19.5726 3.18842 19.45 3.2625L16.5375 5.0125C16.175 5 15.825 5 15.4625 5.0125L12.55 3.2625C12.4274 3.18842 12.2904 3.1412 12.1482 3.12396C12.006 3.10672 11.8618 3.11986 11.725 3.1625C9.81808 3.77226 8.06554 4.78711 6.5875 6.1375C6.48293 6.23207 6.39982 6.34793 6.34376 6.47729C6.2877 6.60666 6.25999 6.74653 6.2625 6.8875L6.325 10.2875C6.125 10.5875 5.95 10.9 5.775 11.225L2.8125 12.875C2.68501 12.9411 2.57394 13.0349 2.48742 13.1496C2.4009 13.2642 2.34113 13.3968 2.3125 13.5375C1.88746 15.4896 1.88746 17.5104 2.3125 19.4625C2.34355 19.6023 2.40426 19.7338 2.49052 19.8481C2.57678 19.9624 2.68658 20.0568 2.8125 20.125L5.7875 21.775C5.94698 22.0984 6.1265 22.4115 6.325 22.7125L6.2625 26.1125C6.26136 26.2551 6.28963 26.3964 6.34555 26.5276C6.40146 26.6588 6.48383 26.7771 6.5875 26.875C8.07084 28.2152 9.822 29.225 11.725 29.8375C11.8618 29.8801 12.006 29.8933 12.1482 29.876C12.2904 29.8588 12.4274 29.8116 12.55 29.7375L15.4625 27.9875H16.5375L19.4625 29.7375C19.6146 29.8375 19.793 29.8897 19.975 29.8875C20.0767 29.8831 20.1774 29.8663 20.275 29.8375C22.1819 29.2277 23.9345 28.2129 25.4125 26.8625C25.5171 26.7679 25.6002 26.6521 25.6562 26.5227C25.7123 26.3933 25.74 26.2535 25.7375 26.1125L25.6875 22.7125C25.875 22.4125 26.05 22.1 26.225 21.775L29.2 20.125C29.3241 20.0561 29.4319 19.9613 29.516 19.8469C29.6001 19.7326 29.6586 19.6015 29.6875 19.4625C30.1125 17.5104 30.1125 15.4896 29.6875 13.5375V13.5375ZM21.5 16.5C21.5 17.5878 21.1774 18.6512 20.5731 19.5556C19.9687 20.4601 19.1098 21.1651 18.1048 21.5813C17.0998 21.9976 15.9939 22.1065 14.927 21.8943C13.8601 21.6821 12.8801 21.1583 12.1109 20.3891C11.3417 19.6199 10.8179 18.6399 10.6057 17.573C10.3935 16.5061 10.5024 15.4002 10.9187 14.3952C11.3349 13.3902 12.0399 12.5313 12.9444 11.9269C13.8488 11.3226 14.9122 11 16 11C17.4587 11 18.8576 11.5795 19.8891 12.6109C20.9205 13.6424 21.5 15.0413 21.5 16.5Z" fill="#EBFFFA"/>
</svg>
