<svg width="25" height="25" viewBox="0 0 25 25" fill="none" xmlns="http://www.w3.org/2000/svg">
<path d="M6.14761 3.38928C6.34653 3.38928 6.53729 3.4683 6.67794 3.60895C6.8186 3.7496 6.89761 3.94037 6.89761 4.13928V11.0487L18.1195 4.19553C18.3471 4.05742 18.6074 3.98238 18.8736 3.97811C19.1398 3.97385 19.4024 4.04052 19.6343 4.17128C19.8662 4.30203 20.0592 4.49216 20.1933 4.72214C20.3274 4.95212 20.398 5.21366 20.3976 5.47991V19.2987C20.3991 19.5663 20.3285 19.8294 20.1932 20.0603C20.058 20.2913 19.863 20.4815 19.6289 20.6112C19.4061 20.7374 19.1537 20.8021 18.8976 20.7987C18.6235 20.7983 18.3547 20.7238 18.1195 20.583L6.89761 13.7299V20.6393C6.89761 20.8382 6.8186 21.029 6.67794 21.1696C6.53729 21.3103 6.34653 21.3893 6.14761 21.3893C5.9487 21.3893 5.75794 21.3103 5.61728 21.1696C5.47663 21.029 5.39761 20.8382 5.39761 20.6393V4.13928C5.39761 3.94037 5.47663 3.7496 5.61728 3.60895C5.75794 3.4683 5.9487 3.38928 6.14761 3.38928V3.38928Z" fill="#B8C8C4"/>
</svg>
