<svg width="25" height="25" viewBox="0 0 25 25" fill="none" xmlns="http://www.w3.org/2000/svg">
<path d="M20.069 4.68135V21.1813C20.069 21.3803 19.99 21.571 19.8494 21.7117C19.7087 21.8523 19.518 21.9313 19.319 21.9313C19.1201 21.9313 18.9294 21.8523 18.7887 21.7117C18.6481 21.571 18.569 21.3803 18.569 21.1813V14.272L7.34717 21.1251C7.112 21.2659 6.84312 21.3404 6.56904 21.3407C6.31298 21.3442 6.0606 21.2795 5.83779 21.1532C5.60363 21.0236 5.40868 20.8333 5.27341 20.6024C5.13814 20.3715 5.06755 20.1084 5.06904 19.8407V6.02197C5.06869 5.75573 5.13921 5.49419 5.27336 5.26421C5.4075 5.03423 5.60045 4.8441 5.83237 4.71334C6.0643 4.58258 6.32685 4.51591 6.59306 4.52018C6.85927 4.52444 7.11955 4.59948 7.34717 4.7376L18.569 11.5907V4.68135C18.569 4.48243 18.6481 4.29167 18.7887 4.15102C18.9294 4.01036 19.1201 3.93135 19.319 3.93135C19.518 3.93135 19.7087 4.01036 19.8494 4.15102C19.99 4.29167 20.069 4.48243 20.069 4.68135Z" fill="#B8C8C4"/>
</svg>
