<svg width="32" height="33" viewBox="0 0 32 33" fill="none" xmlns="http://www.w3.org/2000/svg">
<path d="M28.075 9.425C27.9814 9.33225 27.8705 9.25885 27.7486 9.20897C27.6266 9.15909 27.4961 9.13371 27.3643 9.13429C27.2326 9.13487 27.1022 9.1614 26.9808 9.21235C26.8593 9.2633 26.749 9.33768 26.6562 9.43125C26.5635 9.52482 26.4901 9.63574 26.4402 9.75767C26.3903 9.87961 26.365 10.0102 26.3655 10.1419C26.3661 10.2737 26.3926 10.404 26.4436 10.5255C26.4945 10.647 26.5689 10.7573 26.6625 10.85C28.1594 12.3519 28.9999 14.3858 28.9999 16.5063C28.9999 18.6267 28.1594 20.6606 26.6625 22.1625C26.5684 22.2545 26.4936 22.3643 26.4426 22.4856C26.3915 22.6069 26.3652 22.7372 26.3652 22.8687C26.3652 23.0003 26.3915 23.1306 26.4426 23.2519C26.4936 23.3732 26.5684 23.483 26.6625 23.575C26.8492 23.7588 27.1005 23.8621 27.3625 23.8625C27.628 23.8614 27.883 23.7585 28.075 23.575C29.9467 21.6961 30.9975 19.1521 30.9975 16.5C30.9975 13.8479 29.9467 11.3039 28.075 9.425V9.425Z" fill="#B8C8C4"/>
<path d="M19.4375 3.6C19.2694 3.51891 19.082 3.48647 18.8964 3.50635C18.7109 3.52623 18.5346 3.59764 18.3875 3.7125L9.6625 10.5H4C3.46957 10.5 2.96086 10.7107 2.58579 11.0858C2.21071 11.4609 2 11.9696 2 12.5V20.5C2 21.0304 2.21071 21.5391 2.58579 21.9142C2.96086 22.2893 3.46957 22.5 4 22.5H9.6625L18.3875 29.2875C18.5629 29.4236 18.7781 29.4982 19 29.5C19.1513 29.4982 19.3005 29.4641 19.4375 29.4C19.6082 29.3203 19.7521 29.193 19.8519 29.0332C19.9518 28.8735 20.0032 28.6883 20 28.5V4.5C19.9987 4.31263 19.9454 4.12929 19.8461 3.97039C19.7468 3.8115 19.6054 3.68327 19.4375 3.6V3.6ZM4 12.5H9V20.5H4V12.5Z" fill="#B8C8C4"/>
<path d="M23.125 12.9625C23.0309 13.0545 22.9561 13.1643 22.9051 13.2856C22.854 13.4069 22.8277 13.5372 22.8277 13.6687C22.8277 13.8003 22.854 13.9306 22.9051 14.0519C22.9561 14.1732 23.0309 14.283 23.125 14.375C23.6868 14.9395 24.0022 15.7036 24.0022 16.5C24.0022 17.2964 23.6868 18.0605 23.125 18.625C23.0309 18.717 22.9561 18.8268 22.9051 18.9481C22.854 19.0694 22.8277 19.1997 22.8277 19.3312C22.8277 19.4628 22.854 19.5931 22.9051 19.7144C22.9561 19.8357 23.0309 19.9455 23.125 20.0375C23.2158 20.1308 23.3247 20.2045 23.4451 20.254C23.5656 20.3034 23.6949 20.3276 23.825 20.325C23.957 20.3278 24.0883 20.3038 24.2108 20.2544C24.3332 20.205 24.4444 20.1312 24.5375 20.0375C25.4733 19.098 25.9988 17.826 25.9988 16.5C25.9988 15.174 25.4733 13.902 24.5375 12.9625C24.35 12.7755 24.096 12.6705 23.8312 12.6705C23.5665 12.6705 23.3125 12.7755 23.125 12.9625Z" fill="#B8C8C4"/>
</svg>
